# xmcd CD database file
#
# Track frame offsets:
#	150
#	3347
#	22259
#	42418
#	60074
#	79725
#	94630
#	96378
#	114189
#	131722
#	133550
#	151057
#	152489
#	171663
#	194715
#	196789
#	216265
#	229560
#
# Disc length: 4440 seconds
#
# Revision: 0
# Processed by: cddbd v1.5.1PL0 Copyright (c) Steve Scherf et al.
# Submitted via: CDex 1.50
#
DISCID=e8115612
DTITLE=DJ HAZIME - AIN'T NO STOPPIN' THE DJ
DYEAR=2004
DGENRE=Hip-Hop
TTITLE0=INTRO
TTITLE1=ON THE WHEELZ OF STEEL(WHAT'S MY NAME?)
TTITLE2=RETURN OF THE CHANNEL5
TTITLE3=DANGEROUS CHASE
TTITLE4=金隠し砕き掴む黄金
TTITLE5=いのちのねだん
TTITLE6=SKIT
TTITLE7=WE GOT NEXXX
TTITLE8=生まれつき（渋谷が住所 Pt.2）
TTITLE9=SKIT
TTITLE10=マジッスカ!?(ANOTHER SURE SHOT 外伝)
TTITLE11=SKIT
TTITLE12=THE SUN RISING
TTITLE13=7 DAYZ
TTITLE14=SKIT
TTITLE15=DON'T BE GONE
TTITLE16=OUTRO
TTITLE17=SECRET
EXTD=YEAR: 2004/12/22
EXTT0=
EXTT1=
EXTT2=
EXTT3=
EXTT4=
EXTT5=
EXTT6=
EXTT7=
EXTT8=
EXTT9=
EXTT10=
EXTT11=
EXTT12=
EXTT13=
EXTT14=
EXTT15=
EXTT16=
EXTT17=
PLAYORDER=
